# xmcd CD database file
#
# Track frame offsets:
#	150
#	10842
#	29229
#	46959
#	65036
#	84395
#	92795
#	109657
#	129426
#	143577
#	159228
#
# Disc length: 2354 seconds
#
# Revision: 0
# Processed by: cddbd v1.4PL0 Copyright (c) Steve Scherf et al.
# Submitted via: CDex 1.50Beta1
#
DISCID=8b09300b
DTITLE=Enya - Watermark
DYEAR=1900
DGENRE=New Age
TTITLE0=Watermark
TTITLE1=Cursum Perficio
TTITLE2=On Your Shore
TTITLE3=Storms In Africa
TTITLE4=Exile
TTITLE5=Miss Clare Remembers
TTITLE6=Evening Falls
TTITLE7=Orinoco Flow
TTITLE8=River
TTITLE9=The Longships
TTITLE10=Na Laetha Geal M O'ige
EXTD=
EXTT0=
EXTT1=
EXTT2=
EXTT3=
EXTT4=
EXTT5=
EXTT6=
EXTT7=
EXTT8=
EXTT9=
EXTT10=
PLAYORDER=
